<?xml version="1.0" encoding="UTF-8" standalone="no"?>
<svg
   xmlns:dc="http://purl.org/dc/elements/1.1/"
   xmlns:cc="http://creativecommons.org/ns#"
   xmlns:rdf="http://www.w3.org/1999/02/22-rdf-syntax-ns#"
   xmlns:svg="http://www.w3.org/2000/svg"
   xmlns="http://www.w3.org/2000/svg"
   xmlns:sodipodi="http://sodipodi.sourceforge.net/DTD/sodipodi-0.dtd"
   xmlns:inkscape="http://www.inkscape.org/namespaces/inkscape"
   version="1.1"
   id="svg2"
   xml:space="preserve"
   width="666.66669"
   height="666.66669"
   viewBox="0 0 666.66669 666.66669"
   sodipodi:docname="2370356.eps"><metadata
     id="metadata8"><rdf:RDF><cc:Work
         rdf:about=""><dc:format>image/svg+xml</dc:format><dc:type
           rdf:resource="http://purl.org/dc/dcmitype/StillImage" /></cc:Work></rdf:RDF></metadata><defs
     id="defs6" /><sodipodi:namedview
     pagecolor="#ffffff"
     bordercolor="#666666"
     borderopacity="1"
     objecttolerance="10"
     gridtolerance="10"
     guidetolerance="10"
     inkscape:pageopacity="0"
     inkscape:pageshadow="2"
     inkscape:window-width="640"
     inkscape:window-height="480"
     id="namedview4" /><g
     id="g10"
     inkscape:groupmode="layer"
     inkscape:label="ink_ext_XXXXXX"
     transform="matrix(1.3333333,0,0,-1.3333333,0,666.66667)"><g
       id="g12"
       transform="scale(0.1)"><path
         d="M 0,0 H 5000 V 5000 H 0 Z"
         style="fill:#3f4aa6;fill-opacity:1;fill-rule:nonzero;stroke:none"
         id="path14" /><path
         d="m 3505.34,963.809 c 217.08,239.431 349.34,557.171 349.34,905.821 0,745.07 -604,1349.07 -1349.06,1349.07 -745.08,0 -1349.08,-604 -1349.08,-1349.07 0,-348.65 132.28,-666.39 349.35,-905.821 h 1999.45"
         style="fill:#2d3085;fill-opacity:1;fill-rule:nonzero;stroke:none"
         id="path16" /><path
         d="m 3838.94,2304.89 -399.08,21.6 75.28,-95.61 z"
         style="fill:#ffffff;fill-opacity:1;fill-rule:nonzero;stroke:none"
         id="path18" /><path
         d="m 3515.14,2230.88 -29.12,-133.06 352.92,207.07 z"
         style="fill:#512a93;fill-opacity:1;fill-rule:nonzero;stroke:none"
         id="path20" /><path
         d="m 3486.02,2097.82 60.41,87.32 292.51,119.75 z"
         style="fill:#bc55b1;fill-opacity:1;fill-rule:nonzero;stroke:none"
         id="path22" /><path
         d="m 3838.94,2304.89 -221.87,-255.24 -70.64,135.49 z"
         style="fill:#ffffff;fill-opacity:1;fill-rule:nonzero;stroke:none"
         id="path24" /><path
         d="m 433.027,3570.99 259.918,-81.39 -70.863,-43.08 z"
         style="fill:#ffffff;fill-opacity:1;fill-rule:nonzero;stroke:none"
         id="path26" /><path
         d="m 622.082,3446.52 -13.148,-91.88 -175.907,216.35 z"
         style="fill:#ef571d;fill-opacity:1;fill-rule:nonzero;stroke:none"
         id="path28" /><path
         d="m 608.934,3354.64 -17.735,70.15 -158.172,146.2 z"
         style="fill:#d93e36;fill-opacity:1;fill-rule:nonzero;stroke:none"
         id="path30" /><path
         d="m 433.027,3570.99 80.762,-215.86 77.41,69.66 z"
         style="fill:#ffffff;fill-opacity:1;fill-rule:nonzero;stroke:none"
         id="path32" /><path
         d="m 717.363,3278.17 c 2.903,-1.68 5.813,-3.34 8.727,-4.99 l 4.922,8.71 c -2.887,1.63 -5.77,3.27 -8.637,4.93 z m 44.121,-24.05 c 2.985,-1.53 5.973,-3.04 8.969,-4.54 l 4.473,8.95 c -2.969,1.48 -5.926,2.98 -8.879,4.49 z m 45.289,-21.77 c 3.055,-1.38 6.118,-2.74 9.184,-4.08 l 4.012,9.16 c -3.039,1.33 -6.071,2.67 -9.094,4.04 z m 46.329,-19.46 c 3.121,-1.22 6.246,-2.42 9.378,-3.61 l 3.543,9.35 c -3.101,1.18 -6.195,2.37 -9.285,3.58 z m 47.25,-17.09 c 3.179,-1.06 6.363,-2.1 9.55,-3.13 l 3.067,9.52 c -3.156,1.02 -6.309,2.05 -9.453,3.1 z m 48.054,-14.68 c 3.227,-0.9 6.461,-1.78 9.696,-2.65 l 2.582,9.67 c -3.204,0.85 -6.403,1.72 -9.598,2.61 z m 48.739,-12.23 c 3.265,-0.73 6.545,-1.45 9.815,-2.15 l 2.09,9.78 c -3.24,0.69 -6.48,1.4 -9.722,2.13 z m 49.315,-9.72 c 3.31,-0.55 6.62,-1.08 9.94,-1.59 l 1.52,9.88 c -3.27,0.5 -6.54,1.03 -9.8,1.58 z m 49.98,-6.45 c 3.35,-0.29 6.71,-0.54 10.07,-0.76 l 0.65,9.98 c -3.29,0.21 -6.58,0.46 -9.87,0.75 z m 50.52,-1.55 c 3.38,0.11 6.76,0.25 10.13,0.45 l -0.58,9.98 c -3.27,-0.19 -6.56,-0.33 -9.85,-0.43 z m 50.45,5.29 c 3.34,0.63 6.66,1.31 9.97,2.06 l -2.19,9.75 c -3.2,-0.71 -6.4,-1.37 -9.62,-1.98 z m 48.93,14.05 c 3.16,1.28 6.29,2.62 9.39,4.03 l -4.14,9.1 c -2.97,-1.35 -5.96,-2.63 -8.99,-3.85 z m 44.91,24.15 c 2.8,1.93 5.57,3.92 8.29,5.96 l -6.01,8 c -2.6,-1.96 -5.25,-3.87 -7.94,-5.72 z m 38.73,33.13 c 2.34,2.47 4.63,4.99 6.86,7.56 l -7.54,6.56 c -2.14,-2.46 -4.34,-4.88 -6.58,-7.25 z m 30.88,40.58 c 1.76,2.92 3.45,5.88 5.07,8.88 l -8.79,4.76 c -1.55,-2.87 -3.17,-5.7 -4.85,-8.49 z m 21.08,46.5 c 1.03,3.25 1.98,6.54 2.85,9.84 l -9.67,2.54 c -0.83,-3.15 -1.73,-6.27 -2.71,-9.37 z m 9.09,50.33 c 0.13,2.75 0.19,5.5 0.19,8.24 l -0.01,2.05 -10,-0.12 0.01,-1.93 c 0,-2.59 -0.06,-5.18 -0.18,-7.78 z m -4.83,50.99 c -0.78,3.33 -1.65,6.64 -2.6,9.92 l -9.61,-2.79 c 0.91,-3.12 1.73,-6.26 2.47,-9.42 z m -17.95,47.88 c -1.59,3.02 -3.26,6.01 -5,8.95 l -8.61,-5.1 c 1.66,-2.79 3.25,-5.63 4.76,-8.51 z m -29.32,41.9 c -2.3,2.54 -4.67,5.01 -7.1,7.42 l -7.04,-7.11 c 2.31,-2.28 4.56,-4.63 6.74,-7.04 z m -39.25,32.91 c -2.91,1.81 -5.88,3.54 -8.9,5.18 l -4.77,-8.79 c 2.84,-1.54 5.63,-3.17 8.38,-4.88 z m -47.18,20.2 c -1.45,0.36 -2.92,0.71 -4.39,1.03 -1.9,0.42 -3.81,0.81 -5.72,1.15 l -1.77,-9.84 c 1.79,-0.32 3.56,-0.68 5.33,-1.07 1.38,-0.31 2.75,-0.63 4.11,-0.97 z m -51.3,3.84 c -3.42,-0.31 -6.83,-0.74 -10.23,-1.27 l 1.55,-9.88 c 3.19,0.5 6.39,0.9 9.6,1.2 z m -49.77,-12.43 c -3.17,-1.31 -6.3,-2.71 -9.39,-4.2 l 4.34,-9.01 c 2.92,1.41 5.88,2.74 8.87,3.97 z m -44.1,-26.15 c -2.67,-2.17 -5.28,-4.4 -7.82,-6.71 l 6.74,-7.39 c 2.39,2.17 4.85,4.28 7.37,6.32 z m -34.55,-38.01 c -1.89,-2.89 -3.67,-5.84 -5.35,-8.85 l 8.73,-4.87 c 1.57,2.81 3.23,5.56 4.99,8.26 z m -20.04,-47.45 c -0.69,-3.2 -1.26,-6.43 -1.72,-9.69 l -0.08,-0.54 9.91,-1.35 0.07,0.5 c 0.42,3.02 0.96,6.01 1.6,8.96 z m -2.24,-51.32 c 0.35,-3.39 0.79,-6.78 1.3,-10.15 l 9.89,1.5 c -0.49,3.22 -0.91,6.45 -1.24,9.68 z m 10.51,-49.78 c 0.98,-3.23 2.01,-6.45 3.06,-9.65 l 9.5,3.14 c -1.03,3.12 -2.03,6.26 -2.98,9.41 z m 17.01,-47.44 c 1.29,-3.25 2.55,-6.35 3.78,-9.31 l 9.24,3.82 c -1.21,2.92 -2.45,5.98 -3.73,9.19 z m 20.97,-45.94 c 1.66,-3.02 3.34,-5.95 5.06,-8.82 l 8.58,5.13 c -1.66,2.77 -3.27,5.58 -4.87,8.5 z m 27.64,-42.27 c 1.87,-2.59 3.83,-5.27 5.88,-8.09 l 8.08,5.89 c -2.05,2.81 -4,5.49 -5.86,8.07 l -8.1,-5.87"
         style="fill:#f9fbfb;fill-opacity:1;fill-rule:nonzero;stroke:none"
         id="path34" /><path
         d="m 1116.08,3133.13 c -2.91,-1.65 -5.82,-3.33 -8.72,-5.02 l 5.05,-8.64 c 2.87,1.68 5.74,3.33 8.61,4.97 z m -42.96,-26.14 c -2.81,-1.83 -5.61,-3.67 -8.41,-5.53 l 5.54,-8.32 c 2.77,1.84 5.54,3.66 8.31,5.46 z m -41.39,-28.55 c -2.69,-1.97 -5.38,-3.95 -8.06,-5.96 l 5.99,-8 c 2.65,1.98 5.31,3.94 7.97,5.89 z m -39.707,-30.7 c -2.585,-2.12 -5.164,-4.24 -7.73,-6.39 l 6.402,-7.67 c 2.543,2.12 5.094,4.22 7.653,6.31 z m -38.046,-32.76 c -2.473,-2.25 -4.942,-4.5 -7.395,-6.78 l 6.793,-7.34 c 2.43,2.25 4.871,4.49 7.32,6.71 z m -36.321,-34.67 c -2.359,-2.37 -4.711,-4.76 -7.047,-7.15 l 7.157,-6.99 c 2.316,2.38 4.64,4.73 6.976,7.08 z m -34.527,-36.48 c -2.242,-2.49 -4.469,-4.99 -6.684,-7.5 l 7.5,-6.62 c 2.192,2.49 4.399,4.96 6.614,7.43 z m -32.656,-38.19 c -2.114,-2.6 -4.215,-5.21 -6.301,-7.84 l 7.828,-6.22 c 2.063,2.59 4.141,5.18 6.234,7.75 z m -30.684,-39.81 c -1.98,-2.71 -3.945,-5.43 -5.894,-8.16 l 8.136,-5.81 c 1.93,2.7 3.875,5.39 5.832,8.07 z m -28.598,-41.37 c -1.836,-2.81 -3.656,-5.63 -5.461,-8.46 l 8.43,-5.38 c 1.785,2.8 3.59,5.59 5.406,8.38 z m -26.371,-42.83 c -1.683,-2.91 -3.351,-5.83 -5,-8.75 l 8.707,-4.92 c 1.633,2.9 3.282,5.78 4.95,8.66 z m -23.992,-44.24 c -1.519,-3 -3.019,-6.01 -4.504,-9.02 l 8.973,-4.41 c 1.465,2.97 2.949,5.95 4.453,8.91 z m -21.433,-45.55 c -1.34,-3.09 -2.665,-6.18 -3.965,-9.28 l 9.215,-3.87 c 1.289,3.06 2.593,6.11 3.921,9.16 z m -18.665,-46.77 c -1.148,-3.17 -2.277,-6.34 -3.386,-9.51 l 9.441,-3.3 c 1.094,3.14 2.207,6.27 3.344,9.39 z m -15.667,-47.88 c -0.942,-3.23 -1.864,-6.47 -2.758,-9.71 l 9.636,-2.67 c 0.887,3.2 1.793,6.39 2.719,9.58 z m -12.426,-48.83 c -0.715,-3.29 -1.407,-6.59 -2.074,-9.88 l 9.8,-1.99 c 0.657,3.25 1.34,6.5 2.047,9.74 z m -8.914,-49.61 c -0.473,-3.32 -0.918,-6.65 -1.34,-9.98 l 9.922,-1.26 c 0.414,3.28 0.851,6.56 1.316,9.84 z m -5.309,-50.05 c -0.242,-3.34 -0.465,-6.69 -0.664,-10.04 l 9.984,-0.59 c 0.196,3.3 0.414,6.61 0.653,9.91 z m -1.891,-50.31 v -0.83 c -0.003,-3.08 0.02,-6.16 0.063,-9.25 l 10,0.14 c -0.043,3.04 -0.066,6.08 -0.066,9.11 l 0.003,0.82 z m 1.915,-50.35 c 0.265,-3.35 0.558,-6.7 0.882,-10.05 l 9.953,0.96 c -0.316,3.29 -0.605,6.58 -0.867,9.88 z m 6.199,-50.06 c 0.566,-3.31 1.164,-6.63 1.797,-9.93 l 9.82,1.87 c -0.617,3.24 -1.203,6.49 -1.762,9.75 z m 10.957,-49.27 c 0.898,-3.25 1.836,-6.49 2.804,-9.71 l 9.575,2.87 c -0.946,3.16 -1.86,6.33 -2.743,9.51 z m 16.144,-47.89 0.231,-0.57 c 1.187,-2.94 2.402,-5.87 3.648,-8.78 l 9.192,3.94 c -1.215,2.84 -2.407,5.7 -3.563,8.58 l -0.226,0.56 z m 21.426,-45.76 c 1.59,-2.97 3.215,-5.92 4.867,-8.85 l 8.711,4.9 c -1.617,2.88 -3.207,5.77 -4.765,8.68 z m 26.051,-43.22 c 1.875,-2.79 3.769,-5.57 5.691,-8.33 l 8.207,5.72 c -1.89,2.71 -3.754,5.43 -5.59,8.18 z m 29.867,-40.6 c 2.098,-2.62 4.219,-5.23 6.359,-7.81 l 7.707,6.37 c -2.109,2.55 -4.195,5.11 -6.261,7.69 z m 32.922,-38.09 c 2.277,-2.46 4.574,-4.9 6.891,-7.33 l 7.242,6.89 c -2.285,2.4 -4.551,4.81 -6.801,7.24 z m 35.324,-35.8 c 2.422,-2.32 4.856,-4.62 7.305,-6.91 l 6.832,7.3 c -2.422,2.27 -4.832,4.55 -7.227,6.84 z m 37.188,-33.79 c 2.535,-2.19 5.074,-4.37 7.625,-6.54 l 6.48,7.61 c -2.527,2.15 -5.047,4.32 -7.558,6.49 z m 38.605,-32.09 c 2.613,-2.08 5.231,-4.16 7.859,-6.24 l 6.192,7.86 c -2.609,2.05 -5.211,4.12 -7.805,6.19 z m 39.754,-30.62 c 2.688,-1.99 5.387,-3.97 8.09,-5.94 l 5.89,8.08 c -2.683,1.95 -5.359,3.92 -8.027,5.9 z m 40.902,-29.09 c 2.766,-1.89 5.539,-3.76 8.323,-5.62 l 5.56,8.3 c -2.75,1.85 -5.5,3.71 -8.25,5.58 z m 42.053,-27.43 c 2.84,-1.77 5.69,-3.52 8.55,-5.27 l 5.21,8.53 c -2.83,1.73 -5.65,3.48 -8.47,5.23 z m 43.2,-25.61 c 2.92,-1.64 5.84,-3.27 8.77,-4.89 l 4.83,8.76 c -2.9,1.6 -5.8,3.22 -8.69,4.84 z m 44.32,-23.64 c 2.99,-1.5 5.99,-3 8.99,-4.47 l 4.42,8.97 c -2.98,1.46 -5.95,2.94 -8.91,4.43 z m 45.41,-21.5 c 3.06,-1.35 6.13,-2.7 9.2,-4.02 l 3.96,9.18 c -3.04,1.31 -6.08,2.64 -9.11,3.99 z m 46.44,-19.18 c 3.13,-1.2 6.26,-2.38 9.4,-3.55 l 3.48,9.38 c -3.11,1.15 -6.21,2.32 -9.3,3.51 z m 47.41,-16.71 c 3.19,-1.03 6.39,-2.04 9.59,-3.04 l 2.97,9.55 c -3.17,0.99 -6.33,1.99 -9.49,3.01 z m 48.23,-14.16 c 3.24,-0.86 6.49,-1.71 9.73,-2.53 l 2.47,9.69 c -3.22,0.82 -6.43,1.65 -9.64,2.5 z m 48.89,-11.64 c 3.28,-0.69 6.56,-1.37 9.85,-2.03 l 1.97,9.81 c -3.26,0.65 -6.51,1.32 -9.75,2 z m 49.4,-9.16 c 3.31,-0.53 6.62,-1.04 9.93,-1.54 l 1.49,9.89 c -3.28,0.49 -6.56,1 -9.84,1.52 z m 49.78,-6.76 c 3.33,-0.37 6.66,-0.73 9.99,-1.07 l 1.02,9.95 c -3.3,0.34 -6.6,0.69 -9.9,1.06 z m 50.02,-4.45 c 3.34,-0.23 6.68,-0.44 10.02,-0.63 l 0.58,9.98 c -3.31,0.2 -6.63,0.4 -9.94,0.62 z m 50.15,-2.27 c 3.35,-0.08 6.69,-0.15 10.04,-0.2 l 0.16,10 c -3.32,0.05 -6.64,0.12 -9.96,0.2 z m 50.18,-0.2 c 3.34,0.06 6.68,0.12 10.02,0.2 l -0.24,10 c -3.31,-0.08 -6.63,-0.15 -9.94,-0.2 z m 50.12,1.74 c 3.34,0.18 6.67,0.37 10.01,0.57 l -0.6,9.98 c -3.31,-0.2 -6.63,-0.39 -9.94,-0.56 z m 50.03,3.55 c 3.32,0.29 6.65,0.59 9.97,0.91 l -0.94,9.95 c -3.31,-0.31 -6.61,-0.61 -9.91,-0.9 z m 49.86,5.22 c 3.31,0.4 6.62,0.81 9.94,1.23 l -1.26,9.92 c -3.3,-0.42 -6.59,-0.83 -9.88,-1.23 l 1.2,-9.93 z m 49.66,6.76 c 3.3,0.5 6.6,1.01 9.9,1.53 l -1.55,9.88 c -3.28,-0.52 -6.56,-1.02 -9.84,-1.52 z m 49.44,8.19 c 3.29,0.59 6.57,1.19 9.86,1.8 l -1.83,9.83 c -3.26,-0.6 -6.53,-1.2 -9.8,-1.78 z m 49.2,9.5 c 3.27,0.68 6.54,1.36 9.81,2.05 l -2.07,9.78 c -3.25,-0.68 -6.5,-1.36 -9.76,-2.03 z m 48.95,10.7 c 3.25,0.75 6.5,1.51 9.75,2.28 l -2.29,9.73 c -3.24,-0.76 -6.47,-1.52 -9.71,-2.26 z m 48.69,11.8 c 3.23,0.82 6.47,1.64 9.7,2.48 l -2.49,9.68 c -3.22,-0.83 -6.45,-1.65 -9.67,-2.47 z m 48.43,12.79 c 3.22,0.88 6.44,1.77 9.66,2.66 l -2.68,9.64 c -3.21,-0.89 -6.42,-1.78 -9.62,-2.66 l 2.64,-9.65 z m 48.19,13.69 c 3.2,0.94 6.41,1.88 9.61,2.84 l -2.85,9.58 c -3.19,-0.95 -6.39,-1.89 -9.58,-2.83 z m 47.94,14.5 c 3.19,0.99 6.38,1.99 9.57,2.99 l -3,9.54 c -3.18,-1 -6.36,-1.99 -9.54,-2.98 z m 47.72,15.24 c 3.18,1.04 6.35,2.08 9.53,3.13 l -3.14,9.49 c -3.16,-1.04 -6.33,-2.08 -9.5,-3.12 z m 47.51,15.88 c 3.16,1.08 6.32,2.17 9.48,3.25 l -3.25,9.46 c -3.15,-1.08 -6.31,-2.17 -9.47,-3.24 z m 47.31,16.46 c 3.15,1.12 6.3,2.24 9.44,3.36 l -3.35,9.42 c -3.14,-1.12 -6.29,-2.24 -9.43,-3.35 z m 47.08,16.93 c 3.13,1.14 6.26,2.28 9.39,3.42 l -3.43,9.4 c -3.13,-1.14 -6.25,-2.28 -9.38,-3.42 z m 46.93,17.22 c 3.12,1.16 6.25,2.31 9.37,3.47 l -3.47,9.38 c -3.12,-1.16 -6.24,-2.31 -9.37,-3.47 z m 46.86,17.4 c 3.12,1.17 6.24,2.33 9.36,3.5 l -3.49,9.37 c -3.12,-1.17 -6.24,-2.33 -9.36,-3.5 z m 46.83,17.49 c 3.12,1.17 6.24,2.33 9.36,3.5 l -3.5,9.37 c -3.12,-1.17 -6.24,-2.34 -9.36,-3.5 z m 46.83,17.48 c 3.12,1.16 6.24,2.32 9.37,3.48 l -3.49,9.38 c -3.12,-1.17 -6.25,-2.33 -9.37,-3.49 z m 46.87,17.37 c 3.12,1.15 6.25,2.3 9.38,3.45 l -3.45,9.39 c -3.13,-1.15 -6.26,-2.31 -9.39,-3.46 z m 46.94,17.17 c 3.13,1.13 6.26,2.27 9.4,3.4 l -3.4,9.41 c -3.14,-1.14 -6.28,-2.27 -9.41,-3.41 z m 47.04,16.87 c 3.14,1.12 6.28,2.23 9.43,3.34 l -3.33,9.43 c -3.14,-1.11 -6.29,-2.23 -9.44,-3.34 z m 47.18,16.49 c 3.15,1.08 6.31,2.16 9.46,3.24 l -3.23,9.46 c -3.16,-1.08 -6.32,-2.16 -9.48,-3.25 z m 47.35,15.99 c 3.16,1.04 6.33,2.09 9.49,3.13 l -3.12,9.5 c -3.17,-1.04 -6.35,-2.09 -9.52,-3.14 z m 47.53,15.39 c 3.18,1.01 6.36,2.01 9.54,3 l -2.99,9.54 c -3.19,-0.99 -6.38,-2 -9.56,-3 z m 47.75,14.7 c 3.19,0.95 6.38,1.9 9.58,2.85 l -2.83,9.59 c -3.21,-0.95 -6.41,-1.9 -9.62,-2.86 z m 47.98,13.89 c 3.2,0.89 6.41,1.79 9.62,2.67 l -2.65,9.64 c -3.22,-0.89 -6.45,-1.78 -9.67,-2.68 z m 48.22,12.97 c 3.22,0.83 6.45,1.65 9.68,2.47 l -2.46,9.7 c -3.24,-0.83 -6.48,-1.65 -9.72,-2.49 z m 48.47,11.93 c 3.24,0.76 6.48,1.52 9.73,2.26 l -2.24,9.75 c -3.26,-0.75 -6.51,-1.51 -9.77,-2.27 z m 48.72,10.79 c 3.26,0.68 6.52,1.35 9.78,2.01 l -1.99,9.8 c -3.28,-0.66 -6.55,-1.34 -9.83,-2.02 z m 48.97,9.52 c 3.27,0.59 6.54,1.17 9.82,1.74 l -1.72,9.85 c -3.29,-0.57 -6.59,-1.16 -9.88,-1.75 z m 49.19,8.13 c 3.28,0.49 6.57,0.98 9.86,1.45 l -1.42,9.9 c -3.31,-0.48 -6.62,-0.96 -9.93,-1.46 z m 49.38,6.63 c 3.3,0.38 6.6,0.76 9.9,1.13 l -1.11,9.94 c -3.32,-0.37 -6.64,-0.75 -9.96,-1.14 z m 49.55,5 c 3.31,0.28 6.61,0.54 9.92,0.8 l -0.76,9.97 c -3.34,-0.26 -6.66,-0.53 -9.99,-0.8 z m 49.66,3.28 c 3.31,0.16 6.62,0.3 9.93,0.44 l -0.4,9.99 c -3.34,-0.13 -6.67,-0.28 -10.01,-0.44 z m 49.74,1.45 c 3.32,0.04 6.64,0.06 9.96,0.07 l -0.02,10 c -3.35,-0.01 -6.7,-0.03 -10.04,-0.07 l 0.1,-10"
         style="fill:#f9fbfb;fill-opacity:1;fill-rule:nonzero;stroke:none"
         id="path36" /><path
         d="m 3038,1814.63 c 19.82,-10.4 41.66,-18.29 62.31,-26.88 4.31,-1.79 6.4,5.42 1.95,7.09 -20.71,7.76 -41.7,16.81 -63.02,22.71 -1.71,0.47 -2.87,-2.07 -1.24,-2.92"
         style="fill:#fcfcfc;fill-opacity:1;fill-rule:nonzero;stroke:none"
         id="path38" /><path
         d="m 3111.13,1828.99 c -2.74,-20.12 -5.66,-40.19 -8.73,-60.27 -1.31,-8.59 -2.58,-17.19 -3.95,-25.77 -0.95,-5.71 -1.91,-11.42 -2.87,-17.12 -3.36,-5.14 -2.81,-9.25 1.64,-12.33 1.59,4.06 -5.21,6.95 -7.07,2.98 l -0.85,-1.82 c -0.94,-2.02 -0.48,-4.09 1.41,-5.37 l 2.13,-1.44 c 1.5,-1.03 3.61,-0.53 4.86,0.62 8.92,8.22 5.77,31.46 6.94,42.41 2.75,25.95 5.7,51.88 8.95,77.78 0.18,1.39 -2.27,1.73 -2.46,0.33"
         style="fill:#fcfcfc;fill-opacity:1;fill-rule:nonzero;stroke:none"
         id="path40" /><g
         id="g42"
         transform="scale(10)"><text
           transform="matrix(1,0,0,-1,240.711,288.413)"
           style="font-variant:normal;font-weight:500;font-size:32.041px;font-family:Montserrat;-inkscape-font-specification:Montserrat-Medium;writing-mode:lr-tb;fill:#fcfcfc;fill-opacity:1;fill-rule:nonzero;stroke:none"
           id="text46"><tspan
             x="0"
             y="0"
             id="tspan44">?</tspan></text><text
           transform="matrix(1,0,0,-1,255.434,250.6423)"
           style="font-variant:normal;font-weight:normal;font-size:16.967px;font-family:Montserrat;-inkscape-font-specification:Montserrat-Regular;writing-mode:lr-tb;fill:#fcfcfc;fill-opacity:1;fill-rule:nonzero;stroke:none"
           id="text50"><tspan
             x="0 28.325048 40.845551 51.891453 63.428547"
             y="0"
             sodipodi:role="line"
             id="tspan48">48373</tspan></text></g><path
         d="m 2564.06,2644.99 c 21.54,18.02 42.88,36.33 64.74,53.97 6.72,5.43 14.32,12.82 21.8,17.2 12.04,7.05 10.63,6.55 17.89,-5.67 7.44,-12.5 12.64,-27.31 18.8,-40.46 25.92,-55.34 51.84,-110.68 77.76,-166.02 2.24,-4.81 8.34,-1.68 8.86,2.4 7.62,59.9 14.99,119.83 22.45,179.75 0.79,6.32 -9.15,6.27 -9.92,0 -7.37,-59.91 -14.83,-119.82 -22.05,-179.75 2.96,0.8 5.92,1.6 8.87,2.41 -35.5,74.49 -70.78,149.09 -106.75,223.36 -1.06,2.2 -4.15,2.26 -5.74,0.75 -31.65,-30.06 -65.73,-57.46 -99.19,-85.45 -1.74,-1.46 0.76,-3.93 2.48,-2.49"
         style="fill:#fcfcfc;fill-opacity:1;fill-rule:nonzero;stroke:none"
         id="path52" /><path
         d="m 2797.05,2686.66 c 170.06,-5.75 341.65,-6.58 511.76,-3.2 7.35,0.15 7.36,11.26 0,11.41 -170.11,3.37 -341.7,2.54 -511.76,-3.21 -3.22,-0.11 -3.23,-4.89 0,-5"
         style="fill:#fcfcfc;fill-opacity:1;fill-rule:nonzero;stroke:none"
         id="path54" /><path
         d="m 1241.1,2655.27 c -4.4,0 -8.73,-0.32 -12.98,-0.89 -21.85,46.4 -69.02,78.53 -123.7,78.53 -54.7,0 -101.86,-32.13 -123.709,-78.53 -4.25,0.57 -8.574,0.89 -12.981,0.89 -53.128,0 -96.199,-43.07 -96.199,-96.2 0,-20.55 6.469,-39.59 17.453,-55.23 h 114.706 42.78 115.89 42.78 114.7 c 10.99,15.64 17.46,34.68 17.46,55.23 0,53.13 -43.07,96.2 -96.2,96.2"
         style="fill:#f9fbfb;fill-opacity:1;fill-rule:nonzero;stroke:none"
         id="path56" /><path
         d="M 4431.41,3349.5 H 3208.73 v 49.41 h 1222.68 v -49.41"
         style="fill:#f9fbfb;fill-opacity:1;fill-rule:nonzero;stroke:none"
         id="path58" /><path
         d="m 3306.74,3261.44 v 1059.41 h 49.42 V 3261.44 h -49.42"
         style="fill:#f9fbfb;fill-opacity:1;fill-rule:nonzero;stroke:none"
         id="path60" /><path
         d="M 3436.09,3675.68 V 3398.9 h 129.63 v 276.78 h -129.63"
         style="fill:#f8e21b;fill-opacity:1;fill-rule:nonzero;stroke:none"
         id="path62" /><path
         d="M 3690.62,3808.93 V 3398.9 h 129.63 v 410.03 h -129.63"
         style="fill:#f8e21b;fill-opacity:1;fill-rule:nonzero;stroke:none"
         id="path64" /><path
         d="M 3945.15,3914.42 V 3398.9 h 129.63 v 515.52 h -129.63"
         style="fill:#f8e21b;fill-opacity:1;fill-rule:nonzero;stroke:none"
         id="path66" /><path
         d="m 4329.3,3398.9 h -129.62 v 832.4 h 129.62 v -832.4"
         style="fill:#f8e21b;fill-opacity:1;fill-rule:nonzero;stroke:none"
         id="path68" /><path
         d="m 3494.72,3771.48 731.02,731.01 -7.07,7.07 -731.02,-731.01"
         style="fill:#f9fbfb;fill-opacity:1;fill-rule:nonzero;stroke:none"
         id="path70" /><path
         d="m 4274.22,4558.04 -99.85,-26.75 73.1,-73.09 26.75,99.84 -99.85,-26.75 73.1,-73.09 26.75,99.84"
         style="fill:#f9fbfb;fill-opacity:1;fill-rule:nonzero;stroke:none"
         id="path72" /><path
         d="m 4382.68,1697.45 c 2.15,5.67 3.37,11.79 3.37,18.21 0,28.44 -23.05,51.49 -51.48,51.49 -1.87,0 -3.7,-0.11 -5.52,-0.31 -10.93,26.42 -36.93,45 -67.31,45 -7.06,0 -13.87,-1.01 -20.33,-2.9 -16.06,36.32 -52.38,61.67 -94.65,61.67 -57.14,0 -103.46,-46.32 -103.46,-103.46 0,-26.85 10.22,-51.31 27,-69.7 h 131.68 21.25 63.22 35.06 61.17"
         style="fill:#f9fbfb;fill-opacity:1;fill-rule:nonzero;stroke:none"
         id="path74" /><path
         d="m 785.02,3901.92 c 198.386,198.48 412.54,380.7 609.48,580.69 4.1,4.16 -2.25,10.5 -6.41,6.4 -199.86,-197 -408.254,-385 -606.664,-583.5 -2.309,-2.31 1.281,-5.91 3.594,-3.59"
         style="fill:#fcfcfc;fill-opacity:1;fill-rule:nonzero;stroke:none"
         id="path76" /><path
         d="m 1389.26,4485.81 c -5.85,-197.12 -5.28,-395.19 -2.96,-592.37 0.07,-6.43 9.92,-6.44 10,0 2.31,197.18 2.88,395.25 -2.97,592.37 -0.08,2.61 -3.99,2.62 -4.07,0"
         style="fill:#fcfcfc;fill-opacity:1;fill-rule:nonzero;stroke:none"
         id="path78" /><path
         d="m 684.805,3907.01 c 268.101,-1.09 536.205,-4.03 804.315,-2.74 7.04,0.04 7.05,10.91 0,10.94 -268.11,1.31 -536.214,-1.64 -804.315,-2.73 -3.52,-0.02 -3.524,-5.46 0,-5.47"
         style="fill:#fcfcfc;fill-opacity:1;fill-rule:nonzero;stroke:none"
         id="path80" /><path
         d="m 1217.24,3915.39 c 5.45,48.88 16.27,91.42 48.93,129.82 30.56,35.93 72.53,61.04 119.61,66.9 6.86,0.85 5.64,10.69 -1.28,9.44 -90.15,-16.23 -184.03,-107.75 -168.25,-206.29 l 0.99,0.13"
         style="fill:#fcfcfc;fill-opacity:1;fill-rule:nonzero;stroke:none"
         id="path82" /><path
         d="m 922.434,4375.63 c 26.714,-27.46 52.32,-56.61 79.966,-83.07 4.01,-3.83 9.91,2.08 6.08,6.08 -26.453,27.65 -55.601,53.25 -83.062,79.97 -1.949,1.89 -4.879,-1.04 -2.984,-2.98"
         style="fill:#fcfcfc;fill-opacity:1;fill-rule:nonzero;stroke:none"
         id="path84" /><path
         d="m 947.57,4293.69 c 29.063,28.76 60.16,56.01 88.11,85.79 3.83,4.08 -2.05,9.97 -6.13,6.14 -29.792,-27.96 -57.03,-59.06 -85.792,-88.12 -2.442,-2.46 1.34,-6.25 3.812,-3.81"
         style="fill:#fcfcfc;fill-opacity:1;fill-rule:nonzero;stroke:none"
         id="path86" /><path
         d="m 1504.98,4186.47 c 20.49,-22.94 41.88,-45.08 63.28,-67.15 3.02,-3.11 7.86,1.73 4.75,4.75 -22.07,21.4 -44.21,42.8 -67.14,63.28 l -0.89,-0.88"
         style="fill:#fcfcfc;fill-opacity:1;fill-rule:nonzero;stroke:none"
         id="path88" /><path
         d="m 1612.65,4166.63 c -53.01,-48.96 -104.03,-99.84 -155.18,-150.74 2.46,-2.46 4.91,-4.91 7.37,-7.36 7.53,7.5 14.84,15.19 22.13,22.92 4.11,4.36 -2.21,10.69 -6.57,6.57 -7.74,-7.29 -15.43,-14.59 -22.93,-22.13 -4.73,-4.75 2.63,-12.12 7.37,-7.36 50.9,51.15 101.77,102.16 150.74,155.17 1.81,1.97 -0.97,4.75 -2.93,2.93"
         style="fill:#fcfcfc;fill-opacity:1;fill-rule:nonzero;stroke:none"
         id="path90" /><path
         d="m 4055.37,2770.16 220.84,220.85 -7.07,7.07 -220.84,-220.85"
         style="fill:#fcfcfc;fill-opacity:1;fill-rule:nonzero;stroke:none"
         id="path92" /><path
         d="m 4031.13,3012.25 c -13.52,-20.81 -10.57,-47.8 2.59,-68.14 11.58,-17.91 36.99,-34.94 59,-25.71 23.65,9.92 26.57,43.48 18.21,64.29 -11.46,28.55 -41.77,41.52 -70.93,35.05 -5.2,-1.16 -3,-9.19 2.19,-7.99 23.58,5.46 48.61,-3.65 60,-25.92 12.16,-23.75 4.09,-68.8 -31.69,-59.6 -36.96,9.5 -50.86,53.95 -36.4,86.28 0.89,2 -1.74,3.63 -2.97,1.74"
         style="fill:#fcfcfc;fill-opacity:1;fill-rule:nonzero;stroke:none"
         id="path94" /><path
         d="m 4225.34,2838.62 c -13.52,-20.82 -10.57,-47.8 2.59,-68.14 11.57,-17.91 36.98,-34.95 58.99,-25.72 23.66,9.92 26.58,43.48 18.22,64.3 -11.46,28.54 -41.77,41.51 -70.93,35.04 -5.2,-1.15 -3.01,-9.19 2.19,-7.98 23.58,5.45 48.61,-3.66 60,-25.92 12.16,-23.75 4.08,-68.81 -31.7,-59.61 -36.96,9.5 -50.87,53.95 -36.39,86.29 0.89,1.99 -1.75,3.62 -2.97,1.74"
         style="fill:#fcfcfc;fill-opacity:1;fill-rule:nonzero;stroke:none"
         id="path96" /><path
         d="m 2770.96,4409.27 v 5 h -727.7 c -97.54,-0.02 -177.26,-79.75 -177.28,-177.29 v -471.79 c 0.02,-97.54 79.74,-177.27 177.28,-177.29 h 55.3 l 127.18,-220.29 127.19,220.29 h 418.03 c 97.53,0.02 177.26,79.75 177.28,177.29 v 471.79 c -0.02,97.54 -79.75,177.27 -177.28,177.29 v -5 -5 c 46,0 87.79,-18.81 118.13,-49.14 30.34,-30.35 49.15,-72.15 49.15,-118.15 v -471.79 c 0,-46 -18.81,-87.8 -49.15,-118.14 -30.34,-30.34 -72.13,-49.15 -118.13,-49.15 h -423.81 l -121.41,-210.29 -121.41,210.29 h -61.07 c -46,0 -87.79,18.81 -118.14,49.15 -30.33,30.34 -49.14,72.14 -49.14,118.14 v 471.79 c 0,46 18.81,87.8 49.14,118.15 30.35,30.33 72.14,49.14 118.14,49.14 h 727.7 v 5"
         style="fill:#fcfcfc;fill-opacity:1;fill-rule:nonzero;stroke:none"
         id="path98" /><g
         id="g100"
         transform="scale(10)"><text
           transform="matrix(1,0,0,-1,208.856,405.178)"
           style="font-variant:normal;font-size:28.1537px;font-family:IntroHeadR;-inkscape-font-specification:IntroHeadR-Base;writing-mode:lr-tb;fill:#fcfcfc;fill-opacity:1;fill-rule:nonzero;stroke:none"
           id="text104"><tspan
             x="0 8.7275372 15.484364 23.564438 37.528355 49.972633"
             y="0"
             sodipodi:role="line"
             id="tspan102">I love</tspan></text><text
           transform="matrix(1,0,0,-1,208.85522,381.9948)"
           style="font-variant:normal;font-size:24.5612px;font-family:IntroHeadR;-inkscape-font-specification:IntroHeadR-Base;writing-mode:lr-tb;fill:#fcfcfc;fill-opacity:1;fill-rule:nonzero;stroke:none"
           id="text108"><tspan
             x="0 17.978497 29.915497 40.20599 52.952087"
             y="0"
             sodipodi:role="line"
             id="tspan106">maths</tspan></text></g><path
         d="m 4292.97,2363.19 c 33.58,-33.1 65.78,-67.58 95.77,-103.96 2.82,-3.43 7.89,1.54 4.92,4.91 -31.21,35.36 -63.45,69.61 -97.54,102.2 -2.07,1.99 -5.2,-1.13 -3.15,-3.15"
         style="fill:#fcfcfc;fill-opacity:1;fill-rule:nonzero;stroke:none"
         id="path110" /><path
         d="m 4301.17,2267.75 c 25.51,38.33 53.74,75.48 86.86,107.58 3.06,2.96 -1.86,7.8 -4.64,4.64 -30.95,-35.19 -60.66,-70.55 -86.61,-109.65 -1.81,-2.74 2.58,-5.27 4.39,-2.57"
         style="fill:#fcfcfc;fill-opacity:1;fill-rule:nonzero;stroke:none"
         id="path112" /><path
         d="m 1724.14,3556.94 c 2.71,-17.18 1.39,-35.4 1.37,-52.74 -0.02,-17.29 1.05,-35.56 -1.75,-52.64 -1.41,-8.63 11.75,-8.68 10.32,0 -2.81,17.1 -1.73,35.35 -1.75,52.64 -0.02,17.34 -1.33,35.59 1.37,52.74 1.27,7.99 -10.83,8.05 -9.56,0"
         style="fill:#fcfcfc;fill-opacity:1;fill-rule:nonzero;stroke:none"
         id="path114" /><path
         d="m 1679.02,3509.7 c 35.99,-0.76 72.12,-2.6 108.12,-1.99 6.18,0.1 6.19,9.5 0,9.61 -36,0.61 -72.13,-1.23 -108.12,-2 -3.62,-0.07 -3.62,-5.54 0,-5.62"
         style="fill:#fcfcfc;fill-opacity:1;fill-rule:nonzero;stroke:none"
         id="path116" /><path
         d="m 495.461,3023.35 c -21.566,-42.45 -35.383,-97.38 -19.738,-144.16 8.418,-25.17 38.418,-58.69 66.882,-38.12 22.485,16.24 24.985,61.88 5.477,81.18 -10.375,10.26 -25.035,10.84 -37.465,4.03 -19.172,-10.51 -24.625,-33.01 -27.773,-52.98 -0.852,-5.39 7.183,-7.86 8.363,-2.31 2.856,13.46 5.016,32.84 16.344,42.21 30.937,25.63 44.195,-6.36 44.777,-26.95 0.344,-11.94 -2.262,-27.1 -11.258,-35.86 -18.773,-18.27 -41.98,0.21 -51.91,15.83 -28.25,44.47 -11.43,111.71 9.406,155.32 0.985,2.06 -2.046,3.89 -3.105,1.81"
         style="fill:#fcfcfc;fill-opacity:1;fill-rule:nonzero;stroke:none"
         id="path118" /><path
         d="m 3007.9,3649.76 c -1.25,-44.55 -1.61,-91.5 15.74,-133.42 8.71,-21.05 30.46,-64 57.57,-39.82 18.51,16.51 22.54,51.11 0.87,66.95 -18.92,13.83 -49.74,4.92 -55.5,-18.15 -1.29,-5.12 5.92,-6.88 7.75,-2.13 14.62,37.85 65.53,11.89 52.43,-25.32 -2.37,-12.79 -9.54,-17.86 -21.52,-15.21 -10.39,-4.42 -17.62,-1.33 -21.69,9.25 -7.44,10.12 -13.2,21.67 -17.64,33.37 -14.97,39.46 -15.11,82.87 -14.58,124.48 0.03,2.21 -3.37,2.21 -3.43,0"
         style="fill:#fcfcfc;fill-opacity:1;fill-rule:nonzero;stroke:none"
         id="path120" /><path
         d="m 678.871,1736.33 c 13.195,-27.57 30.434,-50.7 50.543,-73.5 1.711,-1.93 5.098,-0.88 5.703,1.5 5.242,20.49 8.645,41.12 9.422,62.28 0.633,17.34 -2.359,19.33 14.883,22.73 12.254,2.42 26.496,1.15 39.012,2 49.105,3.37 98.183,9.85 146.457,19.52 6.593,1.31 3.8,11.41 -2.786,10.08 -66.859,-13.43 -134.023,-21.53 -202.214,-23.4 -2.243,-0.06 -4.489,-1.94 -4.344,-4.34 1.777,-29.5 -0.567,-58.18 -7.004,-87.05 1.898,0.5 3.797,1.01 5.703,1.5 -22.156,19.71 -39.051,44.08 -52.543,70.34 -0.969,1.89 -3.734,0.22 -2.832,-1.66"
         style="fill:#fcfcfc;fill-opacity:1;fill-rule:nonzero;stroke:none"
         id="path122" /><path
         d="m 793.105,1704.23 c 41.454,-8.26 84.657,-1.23 125.321,7.91 5.609,1.26 3.051,10.47 -2.371,8.58 -40.489,-14.1 -80.489,-14.39 -122.668,-14.42 -1.16,0 -1.477,-1.84 -0.282,-2.07"
         style="fill:#fcfcfc;fill-opacity:1;fill-rule:nonzero;stroke:none"
         id="path124" /><path
         d="M 4485.06,541.949 H 515.035 c -127.762,0 -208.992,136.711 -147.898,248.93 l 327.574,601.671 c 29.484,54.16 86.223,87.87 147.898,87.87 H 4274.6 c 71.57,0 135.32,-45.24 158.95,-112.8 l 210.47,-601.671 c 38.29,-109.48 -42.97,-224 -158.96,-224"
         style="fill:#3a42a1;fill-opacity:1;fill-rule:nonzero;stroke:none"
         id="path126" /><path
         d="m 4641.72,772.539 c -24.28,-61.059 -83.55,-106.57 -156.66,-106.57 H 515.035 c -74.051,0 -132.39,45.961 -156.531,106.422 -43.426,-108.18 35.707,-230.442 156.531,-230.442 H 4485.06 c 115.99,0 197.25,114.52 158.96,224 l -2.3,6.59"
         style="fill:#343899;fill-opacity:1;fill-rule:nonzero;stroke:none"
         id="path128" /><path
         d="m 4126.04,757.691 v -47.382 l -24.8,63.242 z"
         style="fill:#f6b618;fill-opacity:1;fill-rule:nonzero;stroke:none"
         id="path130" /><path
         d="m 3762.72,695.16 h -761.8 l -75.37,138.602 -108.58,-3.403 -130.51,545.091 c -9.06,37.85 19.63,74.22 58.55,74.22 h 707.29 c 22.98,0 43.97,-13.09 54.06,-33.74 l 310.43,-634.098 c 19.58,-39.992 -9.54,-86.672 -54.07,-86.672"
         style="fill:#fcfcfc;fill-opacity:1;fill-rule:nonzero;stroke:none"
         id="path132" /><path
         d="m 2758.81,1073.25 -51.29,214.26 v 0 l 51.29,-214.26 v 0"
         style="fill:#3e42a1;fill-opacity:1;fill-rule:nonzero;stroke:none"
         id="path134" /><path
         d="m 2758.81,1073.25 -51.29,214.26 c 53.61,53.85 107.05,107.9 160.26,162.16 h 267.45 l -376.42,-376.42"
         style="fill:#f7f7f6;fill-opacity:1;fill-rule:nonzero;stroke:none"
         id="path136" /><path
         d="m 3531.22,1365.15 -24.86,50.78 24.87,-50.78 v 0"
         style="fill:#3e42a1;fill-opacity:1;fill-rule:nonzero;stroke:none"
         id="path138" /><path
         d="m 2951.25,786.52 -25.7,47.242 -108.58,-3.403 L 2792.4,933 c 172.22,172.22 344.44,344.44 516.66,516.67 h 143.24 c 22.98,0 43.97,-13.09 54.06,-33.74 v 0 l 24.86,-50.78 C 3338.09,1172.08 3144.86,979.109 2951.25,786.52"
         style="fill:#f7f7f6;fill-opacity:1;fill-rule:nonzero;stroke:none"
         id="path140" /><path
         d="m 3616.01,1191.97 -27.66,56.48 c 0.01,0 0.01,0 0.01,0 l 27.65,-56.48"
         style="fill:#3e42a1;fill-opacity:1;fill-rule:nonzero;stroke:none"
         id="path142" /><path
         d="m 3285.3,695.16 h -251.62 c 185.16,184.16 369.98,368.68 554.68,553.29 l 27.65,-56.48 54.58,-111.5 C 3542.16,952.031 3413.73,823.602 3285.3,695.16"
         style="fill:#f7f7f6;fill-opacity:1;fill-rule:nonzero;stroke:none"
         id="path144" /><path
         d="m 3816.79,781.832 -89.06,181.93 v 0.008 l 89.06,-181.938"
         style="fill:#3e42a1;fill-opacity:1;fill-rule:nonzero;stroke:none"
         id="path146" /><path
         d="m 3762.72,695.16 h -303.59 l 268.6,268.61 89.06,-181.938 c 4.25,-8.672 6.2,-17.652 6.21,-26.41 0.02,-31.621 -25.4,-60.262 -60.28,-60.262"
         style="fill:#f7f7f6;fill-opacity:1;fill-rule:nonzero;stroke:none"
         id="path148" /><path
         d="m 2816.97,830.359 183.95,-135.199 -48.34,139.93 c -5.38,15.59 -21.82,24.441 -37.8,20.351 l -97.81,-25.082"
         style="fill:#a6a9a7;fill-opacity:1;fill-rule:nonzero;stroke:none"
         id="path150" /><path
         d="m 2925.55,990.391 h -239.8 v 96.589 h 239.8 v -96.589"
         style="fill:#ee40a9;fill-opacity:1;fill-rule:nonzero;stroke:none"
         id="path152" /><path
         d="m 2820.09,1131.95 h -239.8 v 96.59 h 239.8 v -96.59"
         style="fill:#e864b9;fill-opacity:1;fill-rule:nonzero;stroke:none"
         id="path154" /><path
         d="m 2580.29,1228.54 1.52,-2.05 103.94,-139.51 h 239.8 l -105.46,141.56 h -239.8"
         style="fill:#e864b9;fill-opacity:1;fill-rule:nonzero;stroke:none"
         id="path156" /><path
         d="m 2732.05,1228.54 h -53.96 c -12.36,-27.35 -24.42,-54.85 -36.45,-82.35 l 29.93,-40.18 c 20.03,40.91 40.28,81.71 60.48,122.53"
         style="fill:#e0a2d6;fill-opacity:1;fill-rule:nonzero;stroke:none"
         id="path158" /><path
         d="m 2925.55,1086.98 -75.68,101.59 c -16.74,-33.87 -33.54,-67.7 -50.23,-101.59 h 125.91"
         style="fill:#e0a2d6;fill-opacity:1;fill-rule:nonzero;stroke:none"
         id="path160" /><path
         d="m 2580.29,1131.95 v 96.59 l 105.46,-141.56 v -96.589 l -105.46,141.559"
         style="fill:#e61997;fill-opacity:1;fill-rule:nonzero;stroke:none"
         id="path162" /><path
         d="M 782.043,1412.61 V 865.98 l 3.078,0.071 C 806.633,815.992 941.34,765.25 1104.41,765.25 c 178.05,0 322.37,58.141 322.37,114.84 v 532.52 H 782.043"
         style="fill:#fcfcfc;fill-opacity:1;fill-rule:nonzero;stroke:none"
         id="path164" /><path
         d="m 1105.22,765.25 c 0.02,0 0.06,0 0.08,0 -0.03,0 -0.05,0 -0.08,0"
         style="fill:#584aa8;fill-opacity:1;fill-rule:nonzero;stroke:none"
         id="path166" /><path
         d="m 1104.41,765.25 c -163.07,0 -297.777,50.742 -319.289,100.801 l -3.078,-0.071 v 14.11 532.52 H 888.051 V 880.09 865.98 l 3.074,0.071 c 19.148,-44.571 128.055,-89.649 266.795,-99 -17.13,-1.153 -34.69,-1.781 -52.62,-1.801 -0.02,0 -0.06,0 -0.08,0 -0.27,0 -0.54,0 -0.81,0 v 0"
         style="fill:#d6d8d5;fill-opacity:1;fill-rule:nonzero;stroke:none"
         id="path168" /><path
         d="m 947.023,1222.56 v -266.9 l 1.5,0.039 c 10.5,-24.437 76.277,-49.219 155.887,-49.219 86.93,0 157.4,28.391 157.4,56.079 v 260.001 c -103.56,-24.02 -211.23,-24.02 -314.787,0"
         style="fill:#3f4aa6;fill-opacity:1;fill-rule:nonzero;stroke:none"
         id="path170" /><path
         d="m 1105.02,906.48 c 0.02,0 0.04,0 0.06,0 -0.02,0 -0.04,0 -0.06,0 m 0.65,0 c 0.01,0 0.02,0 0.02,0 0,0 -0.01,0 -0.02,0 m 0.63,0.008 c 0.01,0 0.02,0 0.03,0 -0.01,0 -0.02,0 -0.03,0 m 0.65,0 v 0 0 m 0.63,0 h 0.01 -0.01 m -12.15,298.112 c -49.02,0.64 -97.992,6.44 -146.09,17.42 48.094,-10.97 97.07,-16.59 146.09,-17.22 v -0.2 m -146.27,17.46 c -0.129,0.03 -0.246,0.06 -0.375,0.09 0.125,-0.03 0.25,-0.06 0.375,-0.09 m -0.777,0.18 c -0.059,0.01 -0.11,0.03 -0.164,0.04 0.054,-0.01 0.109,-0.03 0.164,-0.04"
         style="fill:#5b4a7f;fill-opacity:1;fill-rule:nonzero;stroke:none"
         id="path172" /><path
         d="m 1104.41,906.48 c -79.61,0 -145.387,24.782 -155.887,49.219 l -1.5,-0.039 v 6.899 260.001 c 0.399,-0.1 0.797,-0.19 1.196,-0.28 0.054,-0.01 0.105,-0.03 0.164,-0.04 0.133,-0.03 0.269,-0.06 0.402,-0.09 0.129,-0.03 0.246,-0.06 0.375,-0.09 0.059,-0.01 0.121,-0.02 0.18,-0.04 48.098,-10.98 97.07,-16.78 146.09,-17.42 V 962.559 955.66 l 1.5,0.039 c 6.99,-16.277 38.57,-32.668 82.36,-41.82 -21.4,-4.449 -45.78,-7.18 -71.7,-7.391 h -0.01 c -0.21,0 -0.42,0 -0.63,0 v 0 c -0.21,0 -0.41,0 -0.62,0 -0.01,0 -0.02,0 -0.03,0 -0.2,0 -0.4,-0.008 -0.61,-0.008 0,0 -0.01,0 -0.02,0 -0.2,0 -0.39,0 -0.59,0 -0.02,0 -0.04,0 -0.06,0 -0.2,0 -0.4,0 -0.61,0 v 0"
         style="fill:#302e7b;fill-opacity:1;fill-rule:nonzero;stroke:none"
         id="path174" /><path
         d="m 1426.78,1412.61 c 0,-56.7 -144.33,-102.67 -322.36,-102.67 -178.049,0 -322.377,45.97 -322.377,102.67 0,56.71 144.328,102.68 322.377,102.68 178.03,0 322.36,-45.97 322.36,-102.68"
         style="fill:#a6a9a7;fill-opacity:1;fill-rule:nonzero;stroke:none"
         id="path176" /><path
         d="m 1370.3,1412.61 c 0,-37.44 -119.04,-67.8 -265.88,-67.8 -146.85,0 -265.893,30.36 -265.893,67.8 0,37.46 119.043,67.81 265.893,67.81 146.84,0 265.88,-30.35 265.88,-67.81"
         style="fill:#fcfcfc;fill-opacity:1;fill-rule:nonzero;stroke:none"
         id="path178" /><path
         d="m 1447.99,922.66 v 15 h -126.32 v 357.28 h 126.32 c 27.08,-0.01 51.46,-10.94 69.23,-28.67 17.74,-17.77 28.66,-42.15 28.67,-69.22 v -161.49 c -0.01,-27.08 -10.93,-51.458 -28.67,-69.22 -17.77,-17.738 -42.15,-28.668 -69.23,-28.68 v -15 -15 c 70.64,0.012 127.89,57.262 127.9,127.9 v 161.49 c -0.01,70.63 -57.26,127.88 -127.9,127.89 H 1291.67 V 907.66 h 156.32 v 15"
         style="fill:#fcfcfc;fill-opacity:1;fill-rule:nonzero;stroke:none"
         id="path180" /><path
         d="m 2380.31,1225.9 44.35,66.59 c 3.92,5.9 -2.24,13.15 -9.09,10.71 l -78.3,-27.9 c -4.94,-1.76 -6.58,-7.65 -3.2,-11.49 l 33.96,-38.7 c 3.31,-3.77 9.51,-3.37 12.28,0.79"
         style="fill:#f8a31c;fill-opacity:1;fill-rule:nonzero;stroke:none"
         id="path182" /><path
         d="m 1959.41,940.98 c 0.42,-20.332 -16.52,-37.16 -37.82,-37.589 -21.31,-0.442 -38.92,15.679 -39.34,36.007 -0.41,20.332 16.52,37.172 37.82,37.602 21.31,0.441 38.93,-15.68 39.34,-36.02"
         style="fill:#f8e21b;fill-opacity:1;fill-rule:nonzero;stroke:none"
         id="path184" /><path
         d="m 2381.36,1238.84 c 0.41,-20.33 -16.52,-37.16 -37.83,-37.6 -21.3,-0.43 -38.91,15.69 -39.33,36.02 -0.41,20.33 16.52,37.17 37.82,37.6 21.31,0.44 38.92,-15.68 39.34,-36.02"
         style="fill:#f8e21b;fill-opacity:1;fill-rule:nonzero;stroke:none"
         id="path186" /><path
         d="m 1901.16,971.809 421.01,297.291 48.64,-56.28 -442.39,-309.3 -27.26,68.289"
         style="fill:#f8e21b;fill-opacity:1;fill-rule:nonzero;stroke:none"
         id="path188" /><path
         d="m 2474.01,1290.84 52.32,58.96 c 4.63,5.22 13.24,1.56 12.7,-5.39 l -6.16,-79.47 c -0.38,-5.01 -5.62,-8.13 -10.21,-6.09 l -46.16,20.51 c -4.5,1.99 -5.76,7.8 -2.49,11.48"
         style="fill:#70cfd9;fill-opacity:1;fill-rule:nonzero;stroke:none"
         id="path190" /><path
         d="m 2311.16,826.602 c -19.65,-5.211 -31.37,-25.364 -26.16,-45.02 5.2,-19.652 25.35,-31.371 45.01,-26.16 19.66,5.199 31.37,25.348 26.17,45.008 -5.2,19.652 -25.36,31.371 -45.02,26.172"
         style="fill:#3f4aa6;fill-opacity:1;fill-rule:nonzero;stroke:none"
         id="path192" /><path
         d="m 2486.18,1295.36 c -19.66,-5.21 -31.37,-25.36 -26.17,-45.02 5.21,-19.66 25.36,-31.38 45.02,-26.17 19.65,5.2 31.37,25.36 26.17,45.02 -5.21,19.65 -25.36,31.36 -45.02,26.17"
         style="fill:#3f4aa6;fill-opacity:1;fill-rule:nonzero;stroke:none"
         id="path194" /><path
         d="m 2356.18,781.66 174.71,467.74 -66.95,29.13 -180.61,-490.639 72.85,-6.231"
         style="fill:#3f4aa6;fill-opacity:1;fill-rule:nonzero;stroke:none"
         id="path196" /><path
         d="m 3514.52,1223.48 349.7,8.68 21.55,-245.39 z m 509.8,114.91 h -880.55 l 982.27,-628.081 -101.72,628.081"
         style="fill:#f6b618;fill-opacity:1;fill-rule:nonzero;stroke:none"
         id="path198" /><path
         d="m 3514.52,1269.35 374.14,-3.79 30.75,-254.37 z m 509.8,114.9 h -880.55 l 982.27,-628.07 -101.72,628.07"
         style="fill:#f8e21b;fill-opacity:1;fill-rule:nonzero;stroke:none"
         id="path200" /><path
         d="m 3143.77,1384.25 v -45.86 l 101.88,-19.28 z"
         style="fill:#f6b618;fill-opacity:1;fill-rule:nonzero;stroke:none"
         id="path202" /><path
         d="m 4094.59,950.422 h -82.35 l -5.94,25.719 h 84.12 l 4.17,-25.719"
         style="fill:#fcfcfc;fill-opacity:1;fill-rule:nonzero;stroke:none"
         id="path204" /><path
         d="m 4083.01,1021.63 h -82.34 l -5.95,25.73 h 84.12 l 4.17,-25.73"
         style="fill:#fcfcfc;fill-opacity:1;fill-rule:nonzero;stroke:none"
         id="path206" /><path
         d="m 4069.22,1103.53 h -82.35 l -5.95,25.72 h 84.13 l 4.17,-25.72"
         style="fill:#fcfcfc;fill-opacity:1;fill-rule:nonzero;stroke:none"
         id="path208" /><path
         d="m 4054.53,1200.11 h -82.35 l -5.94,25.74 h 84.12 l 4.17,-25.74"
         style="fill:#fcfcfc;fill-opacity:1;fill-rule:nonzero;stroke:none"
         id="path210" /><path
         d="m 4038.86,1293.14 h -82.33 l -5.95,25.72 h 84.12 l 4.16,-25.72"
         style="fill:#fcfcfc;fill-opacity:1;fill-rule:nonzero;stroke:none"
         id="path212" /><path
         d="m 2278.36,2330.53 c 0,-35.83 -177.55,-102.38 -396.56,-102.38 -219.01,0 -396.55,66.55 -396.55,102.38 0,35.84 177.54,64.9 396.55,64.9 219.01,0 396.56,-29.06 396.56,-64.9"
         style="fill:#fcfcfc;fill-opacity:1;fill-rule:nonzero;stroke:none"
         id="path214" /><path
         d="m 1652.8,2193.38 -113.04,760.07 h 236.11 l 65.3,-899.21 h -175.82 l -12.55,139.14"
         style="fill:#357fae;fill-opacity:1;fill-rule:nonzero;stroke:none"
         id="path216" /><path
         d="m 1627.02,2172.83 -113.03,760.08 h 236.1 l 65.31,-899.21 h -175.82 l -12.56,139.13"
         style="fill:#99b0bf;fill-opacity:1;fill-rule:nonzero;stroke:none"
         id="path218" /><path
         d="m 1621.4,2210.64 5.62,-37.81 3.62,-40.1 c 55.31,55.2 110.48,110.52 165.51,165.99 l -5.87,80.8 c -56.29,-56.29 -112.58,-112.59 -168.88,-168.88"
         style="fill:#8a9ead;fill-opacity:1;fill-rule:nonzero;stroke:none"
         id="path220" /><path
         d="m 1581.43,2479.44 17.47,-117.47 c 59.87,59.87 119.74,119.74 179.61,179.61 l -9.09,125.23 c -62.59,-62.53 -125.26,-124.98 -187.99,-187.37"
         style="fill:#8a9ead;fill-opacity:1;fill-rule:nonzero;stroke:none"
         id="path222" /><path
         d="m 1547.56,2707.12 11.42,-76.76 c 66.29,66.08 132.49,132.23 198.67,198.41 l -5.87,80.94 c -68.24,-67.36 -136.32,-134.88 -204.22,-202.59"
         style="fill:#8a9ead;fill-opacity:1;fill-rule:nonzero;stroke:none"
         id="path224" /><path
         d="m 1600.54,2932.91 h -86.55 l 11.1,-74.66 c 25.09,24.95 50.32,49.75 75.45,74.66"
         style="fill:#8a9ead;fill-opacity:1;fill-rule:nonzero;stroke:none"
         id="path226" /><path
         d="m 1705.43,2033.7 h 109.97 l -7.44,102.45 c -34.13,-34.19 -68.32,-68.33 -102.53,-102.45"
         style="fill:#8a9ead;fill-opacity:1;fill-rule:nonzero;stroke:none"
         id="path228" /><path
         d="m 2015.01,1973.96 -16.66,4.47 c -30.9,8.31 -49.22,40.08 -40.92,70.98 l 182.97,681.33 c 8.3,30.9 40.08,49.23 70.98,40.93 l 16.66,-4.48 c 30.9,-8.3 49.23,-40.07 40.93,-70.98 l -182.98,-681.33 c -8.29,-30.9 -40.08,-49.22 -70.98,-40.92"
         style="fill:#ee40a9;fill-opacity:1;fill-rule:nonzero;stroke:none"
         id="path230" /><path
         d="m 2265.32,2682.61 2.75,10.24 c 8.79,32.76 -10.63,66.45 -43.39,75.25 l -9.94,2.67 c -32.76,8.79 -66.44,-10.63 -75.24,-43.39 l -0.96,-3.57 c 35.55,-29.24 82.57,-46.95 126.78,-41.2"
         style="fill:#e61997;fill-opacity:1;fill-rule:nonzero;stroke:none"
         id="path232" /><path
         d="m 1880.11,2191.07 v 518.29 l 68.41,210.99 55.26,-203.45 -27.63,-550.08 -96.04,24.25"
         style="fill:#f9acb2;fill-opacity:1;fill-rule:nonzero;stroke:none"
         id="path234" /><path
         d="m 2003.67,2714.72 0.11,2.18 -55.26,203.45 -66.67,-205.63 0.1,-0.03 c 39.41,-13.71 82.31,-13.7 121.72,0.03"
         style="fill:#f24c8b;fill-opacity:1;fill-rule:nonzero;stroke:none"
         id="path236" /><path
         d="m 1670.97,1410.52 -185.72,928.67 c 0,0 106.83,-93.56 397.04,-93.56 290.22,0 392.69,93.56 392.69,93.56 l -107.69,-909.42 c -14.67,-123.87 -119.31,-218.42 -244.05,-218.18 -11.42,0.03 -23.15,0.5 -35.16,1.51 -108.02,9.07 -195.86,91.14 -217.11,197.42"
         style="fill:#f6b618;fill-opacity:1;fill-rule:nonzero;stroke:none"
         id="path238" /><path
         d="m 1829.97,1410.52 -171.49,857.53 c -123.52,27.68 -173.23,71.14 -173.23,71.14 l 185.72,-928.67 c 21.25,-106.28 109.09,-188.35 217.11,-197.42 12.01,-1.01 23.74,-1.48 35.16,-1.51 25.64,-0.05 50.35,4.1 73.69,11.5 -84.25,26.22 -149.11,98.2 -166.96,187.43"
         style="fill:#f8a31c;fill-opacity:1;fill-rule:nonzero;stroke:none"
         id="path240" /><path
         d="m 1513.99,2932.91 25.77,20.54 h 32.48 l -13.92,-20.54 h -44.33"
         style="fill:#357fae;fill-opacity:1;fill-rule:nonzero;stroke:none"
         id="path242" /><path
         d="m 2592.31,329.789 c -3.95,-4.047 -7.34,-8.5 -10.13,-13.277 l -4.24,2.207 c -0.62,2.711 -3.2,4.59 -6.03,4.261 -3.02,-0.371 -5.19,-3.101 -4.83,-6.128 0.36,-3.02 3.09,-5.18 6.12,-4.821 l 1.68,0.469 4.12,-2.141 c -2.29,-5.058 -3.95,-10.398 -4.92,-15.929 l 6.81,-1.2 c 2.1,11.922 7.77,22.899 16.37,31.731 l -4.95,4.828"
         style="fill:#fcfcfc;fill-opacity:1;fill-rule:nonzero;stroke:none"
         id="path244" /><path
         d="m 2642.44,350.82 c -1.56,0 -3.12,-0.058 -4.65,-0.16 l -0.67,5.719 c 1.7,1.371 2.69,3.562 2.42,5.891 -0.42,3.601 -3.67,6.16 -7.27,5.73 -3.59,-0.418 -6.15,-3.668 -5.73,-7.258 0.27,-2.32 1.73,-4.211 3.69,-5.152 l 0.67,-5.699 c -6.52,-1.059 -12.82,-3.032 -18.81,-5.903 l 2.98,-6.25 c 8.54,4.082 17.75,6.153 27.37,6.153 4.54,0 9.07,-0.481 13.47,-1.43 l 1.47,6.769 c -4.88,1.051 -9.91,1.59 -14.94,1.59"
         style="fill:#fcfcfc;fill-opacity:1;fill-rule:nonzero;stroke:none"
         id="path246" /><path
         d="m 2702.76,327.551 c 3.02,0.371 5.17,3.121 4.79,6.14 -0.36,3.028 -3.11,5.168 -6.14,4.801 -2.82,-0.351 -4.88,-2.773 -4.83,-5.562 l -3.8,-3.309 c -3.82,3.918 -8.14,7.418 -12.86,10.399 l -3.69,-5.86 c 10.36,-6.531 18.45,-15.762 23.41,-26.719 l 6.31,2.848 c -2.29,5.07 -5.18,9.793 -8.61,14.121 l 3.68,3.199 1.74,-0.058"
         style="fill:#fcfcfc;fill-opacity:1;fill-rule:nonzero;stroke:none"
         id="path248" /><path
         d="m 2637.44,257.559 c -3.53,-0.219 -7.08,-0.317 -10.57,-0.317 -8.05,0 -15.84,0.559 -22.65,1.629 -3.56,0.57 -7.72,1.418 -11.6,2.68 9.56,-17 28.04,-28.559 49.22,-28.559 26.1,0 48.08,17.508 54.36,41.149 -6.23,-4.102 -13.75,-7.539 -22.46,-10.262 -10.77,-3.359 -23.33,-5.539 -36.3,-6.32"
         style="fill:#fcfcfc;fill-opacity:1;fill-rule:nonzero;stroke:none"
         id="path250" /><path
         d="m 2665.99,285.75 c -6.85,0 -12.42,5.582 -12.42,12.422 0,6.859 5.57,12.43 12.42,12.43 6.86,0 12.43,-5.571 12.43,-12.43 0,-6.84 -5.57,-12.422 -12.43,-12.422 z m -43.28,-8.301 c -9.32,0 -16.89,7.582 -16.89,16.903 0,9.32 7.57,16.898 16.89,16.898 9.32,0 16.91,-7.578 16.91,-16.898 0,-9.321 -7.59,-16.903 -16.91,-16.903 z m 19.73,59.52 c -30.63,0 -55.54,-24.367 -55.54,-54.297 0,-3.883 0.42,-7.762 1.25,-11.524 6.15,-4.406 24.72,-8.136 48.86,-6.679 26.3,1.582 48.39,8.75 60.95,19.722 -0.05,1.778 -0.19,3.559 -0.41,5.321 -3.47,27.047 -27.16,47.457 -55.11,47.457"
         style="fill:#fcfcfc;fill-opacity:1;fill-rule:nonzero;stroke:none"
         id="path252" /><path
         d="m 2788.64,319.91 c -2.69,1.059 -7.35,2.82 -12.63,2.172 -5.03,-0.633 -7.7,-3.113 -7.7,-9.203 v -7.91 h 20.35 v -15.688 h -20.35 v -49.832 h -17.65 v 49.832 h -12.25 v 15.688 h 12.25 v 8.113 c 0,15.348 8.17,25.43 23.46,25.43 5.87,0 10.57,-1.114 14.53,-2.821 l -0.01,-15.781"
         style="fill:#fcfcfc;fill-opacity:1;fill-rule:nonzero;stroke:none"
         id="path254" /><path
         d="m 2831.61,289.469 c -1.62,0.273 -3.27,0.422 -4.82,0.422 -8.17,0 -13.79,-5 -13.79,-14.739 v -35.703 h -17.64 v 65.52 h 17.1 v -7.168 c 4.13,6.148 10.42,8.929 18.46,8.929 3.78,0 7.75,-1.171 9.99,-3.082 l -9.3,-14.179"
         style="fill:#fcfcfc;fill-opacity:1;fill-rule:nonzero;stroke:none"
         id="path256" /><path
         d="m 2854.93,278.398 h 29 c -1.62,8.383 -6.69,13.114 -14.27,13.114 -8.32,0 -13.18,-5 -14.73,-13.114 z m 46.72,-6.089 c 0,-2.028 -0.14,-4.457 -0.34,-5.95 h -46.45 c 1.89,-9.468 8.52,-13.589 16.84,-13.589 5.67,0 11.83,2.3 16.56,6.289 l 10.35,-11.36 c -7.44,-6.828 -16.9,-9.937 -27.93,-9.937 -20.08,0 -34.01,13.66 -34.01,34.277 0,20.621 13.52,34.691 33.13,34.691 18.87,0 31.78,-14 31.85,-34.421"
         style="fill:#fcfcfc;fill-opacity:1;fill-rule:nonzero;stroke:none"
         id="path258" /><path
         d="m 2924.84,278.398 h 29.01 c -1.63,8.383 -6.7,13.114 -14.26,13.114 -8.32,0 -13.19,-5 -14.75,-13.114 z m 46.73,-6.089 c 0,-2.028 -0.14,-4.457 -0.34,-5.95 h -46.46 c 1.9,-9.468 8.53,-13.589 16.84,-13.589 5.68,0 11.83,2.3 16.57,6.289 l 10.34,-11.36 c -7.44,-6.828 -16.9,-9.937 -27.92,-9.937 -20.09,0 -34.01,13.66 -34.01,34.277 0,20.621 13.52,34.691 33.12,34.691 18.87,0 31.79,-14 31.86,-34.421"
         style="fill:#fcfcfc;fill-opacity:1;fill-rule:nonzero;stroke:none"
         id="path260" /><path
         d="m 2995.94,272.242 c 0,-10.344 6.84,-18.051 16.84,-18.051 10.42,0 16.9,8.039 16.9,18.051 0,10.008 -6.48,18.059 -16.9,18.059 -10,0 -16.84,-7.711 -16.84,-18.059 z m 51.87,0 c 0,-19.672 -13.66,-34.48 -31.71,-34.48 -8.8,0 -15.02,3.449 -19.28,8.519 v -33.883 h -17.58 v 92.571 h 17.25 v -7.239 c 4.26,5.34 10.55,9 19.54,9 18.12,0 31.78,-14.808 31.78,-34.488"
         style="fill:#fcfcfc;fill-opacity:1;fill-rule:nonzero;stroke:none"
         id="path262" /><path
         d="m 3073.8,239.449 h -17.65 v 65.52 h 17.65 z m 2.36,86.953 c 0,-6.351 -4.93,-11.222 -11.29,-11.222 -6.36,0 -11.22,4.871 -11.22,11.222 0,6.36 4.86,11.36 11.22,11.36 6.36,0 11.29,-5 11.29,-11.36"
         style="fill:#fcfcfc;fill-opacity:1;fill-rule:nonzero;stroke:none"
         id="path264" /><path
         d="m 3103.25,281.641 24.68,23.328 h 21.64 l -31.79,-30.828 31.98,-34.692 h -21.7 l -24.81,26.5 v -26.5 h -17.66 v 97.36 h 17.66 v -55.168"
         style="fill:#fcfcfc;fill-opacity:1;fill-rule:nonzero;stroke:none"
         id="path266" /><path
         d="m 1900.82,257.582 v 29.297 c -3.62,5.621 -11.38,10.441 -19.41,10.441 -12.98,0 -20.74,-10.711 -20.74,-25.031 0,-14.309 7.76,-24.891 20.74,-24.891 8.03,0 15.79,4.551 19.41,10.184 z m 0,-17.531 v 9.629 c -4.82,-6.559 -12.71,-11.25 -21.81,-11.25 -16.87,0 -28.77,12.859 -28.77,33.859 0,20.609 11.77,34 28.77,34 8.7,0 16.59,-4.289 21.81,-11.379 v 34.391 h 10.04 v -89.25 h -10.04"
         style="fill:#fcfcfc;fill-opacity:1;fill-rule:nonzero;stroke:none"
         id="path268" /><path
         d="m 1955.55,297.992 c -13.79,0 -20.61,-11.652 -21.14,-21.551 h 42.42 c -0.14,9.641 -6.56,21.551 -21.28,21.551 z m -31.72,-25.562 c 0,18.73 13.38,33.859 31.85,33.859 19.54,0 31.05,-15.269 31.05,-34.66 v -2.547 h -52.32 c 0.8,-12.184 9.36,-22.34 23.28,-22.34 7.36,0 14.86,2.938 19.94,8.156 l 4.81,-6.558 c -6.42,-6.418 -15.11,-9.91 -25.69,-9.91 -19.14,0 -32.92,13.789 -32.92,34"
         style="fill:#fcfcfc;fill-opacity:1;fill-rule:nonzero;stroke:none"
         id="path270" /><path
         d="m 1993.95,248.609 5.22,7.231 c 4.28,-4.949 12.44,-9.238 21.28,-9.238 9.9,0 15.25,4.687 15.25,11.109 0,15.66 -40.01,6.019 -40.01,29.969 0,10.039 8.7,18.609 24.09,18.609 10.97,0 18.73,-4.148 23.95,-9.379 l -4.69,-6.949 c -3.87,4.687 -10.97,8.16 -19.26,8.16 -8.84,0 -14.32,-4.41 -14.32,-10.172 0,-14.179 40.01,-4.82 40.01,-29.969 0,-10.839 -8.7,-19.55 -25.42,-19.55 -10.58,0 -19.55,3.218 -26.1,10.179"
         style="fill:#fcfcfc;fill-opacity:1;fill-rule:nonzero;stroke:none"
         id="path272" /><path
         d="m 2058.45,240.051 v 64.621 h 10.04 v -64.621 z m -1.74,80.551 c 0,3.75 3.08,6.828 6.69,6.828 3.75,0 6.83,-3.078 6.83,-6.828 0,-3.75 -3.08,-6.692 -6.83,-6.692 -3.61,0 -6.69,2.942 -6.69,6.692"
         style="fill:#fcfcfc;fill-opacity:1;fill-rule:nonzero;stroke:none"
         id="path274" /><path
         d="m 2131.92,258.641 v 28.238 c -3.49,5.621 -11.25,10.441 -19.28,10.441 -12.98,0 -20.74,-10.308 -20.74,-24.629 0,-14.179 7.76,-24.621 20.74,-24.621 8.03,0 15.79,4.95 19.28,10.571 z m -46.84,-35.192 5.08,7.492 c 5.35,-6.421 11.78,-8.832 21.01,-8.832 10.71,0 20.75,5.223 20.75,19.403 v 9.238 c -4.69,-6.551 -12.58,-11.508 -21.69,-11.508 -16.85,0 -28.77,12.578 -28.77,33.449 0,20.739 11.78,33.598 28.77,33.598 8.7,0 16.47,-4.289 21.69,-11.379 v 9.762 h 10.03 v -62.75 c 0,-21.422 -14.99,-28.102 -30.78,-28.102 -10.97,0 -18.46,2.129 -26.09,9.629"
         style="fill:#fcfcfc;fill-opacity:1;fill-rule:nonzero;stroke:none"
         id="path276" /><path
         d="m 2202.3,240.051 v 42.281 c 0,11.379 -5.76,14.988 -14.45,14.988 -7.9,0 -15.39,-4.82 -19.14,-10.039 v -47.23 h -10.04 v 64.621 h 10.04 v -9.363 c 4.55,5.351 13.38,10.98 23.02,10.98 13.51,0 20.61,-6.828 20.61,-20.879 v -45.359 h -10.04"
         style="fill:#fcfcfc;fill-opacity:1;fill-rule:nonzero;stroke:none"
         id="path278" /><path
         d="m 2257.03,297.992 c -13.78,0 -20.61,-11.652 -21.14,-21.551 h 42.42 c -0.14,9.641 -6.56,21.551 -21.28,21.551 z m -31.72,-25.562 c 0,18.73 13.39,33.859 31.85,33.859 19.54,0 31.05,-15.269 31.05,-34.66 v -2.547 h -52.32 c 0.8,-12.184 9.37,-22.34 23.28,-22.34 7.36,0 14.85,2.938 19.94,8.156 l 4.82,-6.558 c -6.42,-6.418 -15.12,-9.91 -25.7,-9.91 -19.13,0 -32.92,13.789 -32.92,34"
         style="fill:#fcfcfc;fill-opacity:1;fill-rule:nonzero;stroke:none"
         id="path280" /><path
         d="m 2347.89,257.582 v 29.297 c -3.62,5.621 -11.37,10.441 -19.4,10.441 -12.98,0 -20.74,-10.711 -20.74,-25.031 0,-14.309 7.76,-24.891 20.74,-24.891 8.03,0 15.78,4.551 19.4,10.184 z m 0,-17.531 v 9.629 c -4.82,-6.559 -12.71,-11.25 -21.81,-11.25 -16.86,0 -28.77,12.859 -28.77,33.859 0,20.609 11.77,34 28.77,34 8.7,0 16.59,-4.289 21.81,-11.379 v 34.391 h 10.04 v -89.25 h -10.04"
         style="fill:#fcfcfc;fill-opacity:1;fill-rule:nonzero;stroke:none"
         id="path282" /><path
         d="m 2435.13,247.398 c 13.12,0 20.88,10.582 20.88,24.891 0,14.32 -7.76,25.031 -20.88,25.031 -7.89,0 -15.78,-4.82 -19.26,-10.441 v -29.297 c 3.48,-5.633 11.37,-10.184 19.26,-10.184 z m -29.3,-7.347 v 89.25 h 10.04 V 294.91 c 5.22,7.09 12.97,11.379 21.81,11.379 16.86,0 28.77,-13.391 28.77,-34 0,-21 -11.91,-33.859 -28.77,-33.859 -9.1,0 -17,4.691 -21.81,11.25 v -9.629 h -10.04"
         style="fill:#fcfcfc;fill-opacity:1;fill-rule:nonzero;stroke:none"
         id="path284" /><path
         d="m 2477.42,223.852 c 1.47,-0.672 3.89,-1.071 5.49,-1.071 4.41,0 7.36,1.469 9.64,6.828 l 4.28,9.762 -27.03,65.301 h 10.84 l 21.54,-52.981 21.41,52.981 h 10.97 l -32.38,-77.742 c -3.88,-9.36 -10.44,-12.989 -19,-13.11 -2.15,0 -5.49,0.399 -7.36,0.93 l 1.6,9.102"
         style="fill:#fcfcfc;fill-opacity:1;fill-rule:nonzero;stroke:none"
         id="path286" /></g></g></svg>
